<?xml version="1.0" encoding="utf-8"?>
<?xml-stylesheet type="text/css" href="./svg.css" ?><svg 
  xmlns="http://www.w3.org/2000/svg"
  x0="0px"
  y0="0px"
  width="1000" 
  height="500" 
  viewBox="0 0 1000 500"
  fill="none"
  stroke="none"
  stroke-width="20"
  stroke-linecap="square"
  xml:space="preserve"
 >
<path 
  class="path-0"
  stroke="#ff0000" 
  stroke-width="20"
  d="
    M 10 500
    C 10 255, 255 10, 500 10
    S 990 255, 990 500
  " 
/>
<path 
  class="path-1"
  stroke="#ff7f00" 
  stroke-width="20"
  d="
    M 30 500
    C 30 265, 265 30, 500 30
    S 970 265, 970 500
  " 
/>
<path 
  class="path-2"
  stroke="#ffff00" 
  stroke-width="20"
  d="
    M 50 500
    C 50 275, 275 50, 500 50
    S 950 275, 950 500
  " 
/>
<path 
  class="path-3"
  stroke="#00ff00" 
  stroke-width="20"
  d="
    M 70 500
    C 70 285, 285 70, 500 70
    S 930 285, 930 500
  " 
/>
<path 
  class="path-4"
  stroke="#0000ff" 
  stroke-width="20"
  d="
    M 90 500
    C 90 295, 295 90, 500 90
    S 910 295, 910 500
  " 
/>
<path 
  class="path-5"
  stroke="#800080" 
  stroke-width="20"
  d="
    M 110 500
    C 110 305, 305 110, 500 110
    S 890 305, 890 500
  " 
/>
</svg>